<svg width="163.360009765625px" height="82.43999023437499px" xmlns="http://www.w3.org/2000/svg" viewBox="168.3199951171875 33.780004882812506 163.360009765625 82.43999023437499" style="background: rgba(0, 0, 0, 0) none repeat scroll 0% 0%;" preserveAspectRatio="xMidYMid"><defs><linearGradient id="editing-outline-gradient" class="editing-outline-gradient" x1="-0.41354545764260087" x2="1.4135454576426008" y1="0.09326335692419985" y2="0.9067366430758002"><stop offset="0" stop-color="#1da1f2"></stop><stop offset="1" stop-color="#1da1f2"></stop></linearGradient><filter id="editing-outline" x="-100%" y="-100%" width="300%" height="300%"><feMorphology in="SourceGraphic" operator="dilate" radius="1" result="outline"></feMorphology><feComposite operator="out" in="outline" in2="SourceAlpha"></feComposite></filter></defs><g filter="url(#editing-outline)"><g transform="translate(198.09499818086624, 87.8950023651123)"><path d="M12.67 0.45L12.67 0.45Q6.82 0.45 3.63-2.62L3.63-2.62L3.63-2.62Q0.45-5.70 0.45-12.45L0.45-12.45L0.45-12.45Q0.45-19.20 3.63-22.27L3.63-22.27L3.63-22.27Q6.82-25.34 12.67-25.34L12.67-25.34L12.67-25.34Q18.53-25.34 21.71-22.27L21.71-22.27L21.71-22.27Q24.90-19.20 24.90-12.45L24.90-12.45L24.90-12.45Q24.90-5.70 21.71-2.62L21.71-2.62L21.71-2.62Q18.53 0.45 12.67 0.45L12.67 0.45ZM12.67-5.25L12.67-5.25Q13.76-5.25 14.30-5.82L14.30-5.82L14.30-5.82Q14.85-6.40 14.85-7.62L14.85-7.62L14.85-17.28L14.85-17.28Q14.85-18.50 14.30-19.07L14.30-19.07L14.30-19.07Q13.76-19.65 12.67-19.65L12.67-19.65L12.67-19.65Q11.58-19.65 11.04-19.07L11.04-19.07L11.04-19.07Q10.50-18.50 10.50-17.28L10.50-17.28L10.50-7.62L10.50-7.62Q10.50-6.37 11.04-5.81L11.04-5.81L11.04-5.81Q11.58-5.25 12.67-5.25L12.67-5.25ZM25.98 0L25.98-5.25L27.58-5.25L27.58-19.65L25.98-19.65L25.98-24.90L40.03-24.90L40.03-24.90Q44.16-24.90 46.34-23.12L46.34-23.12L46.34-23.12Q48.51-21.34 48.51-17.38L48.51-17.38L48.51-17.38Q48.51-13.41 46.34-11.63L46.34-11.63L46.34-11.63Q44.16-9.86 40.03-9.86L40.03-9.86L36.54-9.86L36.54-5.25L39.62-5.25L39.62 0L25.98 0ZM36.54-14.40L37.63-14.40L37.63-14.40Q39.49-14.40 39.49-16.45L39.49-16.45L39.49-17.60L39.49-17.60Q39.49-18.66 39.02-19.15L39.02-19.15L39.02-19.15Q38.56-19.65 37.63-19.65L37.63-19.65L36.54-19.65L36.54-14.40ZM52.03 0L47.04 0L47.04-5.25L52.03-5.25L52.03 0ZM78.34-12.77L78.34-8L76.74-8L76.74-1.60L76.74-1.60Q75.33-0.80 72.62-0.18L72.62-0.18L72.62-0.18Q69.92 0.45 66.78 0.45L66.78 0.45L66.78 0.45Q60.80 0.45 57.41-2.70L57.41-2.70L57.41-2.70Q54.02-5.86 54.02-12.45L54.02-12.45L54.02-12.45Q54.02-19.20 57.39-22.27L57.39-22.27L57.39-22.27Q60.77-25.34 67.04-25.34L67.04-25.34L67.04-25.34Q70.08-25.34 72.74-24.70L72.74-24.70L72.74-24.70Q75.39-24.06 76.74-23.26L76.74-23.26L76.74-15.62L68.74-15.62L68.74-17.12L68.74-17.12Q68.74-18.46 68.18-19.06L68.18-19.06L68.18-19.06Q67.62-19.65 66.40-19.65L66.40-19.65L66.40-19.65Q65.18-19.65 64.62-19.06L64.62-19.06L64.62-19.06Q64.06-18.46 64.06-17.12L64.06-17.12L64.06-7.78L64.06-7.78Q64.06-6.43 64.62-5.84L64.62-5.84L64.62-5.84Q65.18-5.25 66.40-5.25L66.40-5.25L66.40-5.25Q67.62-5.25 68.18-5.84L68.18-5.84L68.18-5.84Q68.74-6.43 68.74-7.78L68.74-7.78L68.74-8L67.01-8L67.01-12.77L78.34-12.77ZM103.36-12.77L103.36-8L101.76-8L101.76-1.60L101.76-1.60Q100.35-0.80 97.65-0.18L97.65-0.18L97.65-0.18Q94.94 0.45 91.81 0.45L91.81 0.45L91.81 0.45Q85.82 0.45 82.43-2.70L82.43-2.70L82.43-2.70Q79.04-5.86 79.04-12.45L79.04-12.45L79.04-12.45Q79.04-19.20 82.42-22.27L82.42-22.27L82.42-22.27Q85.79-25.34 92.06-25.34L92.06-25.34L92.06-25.34Q95.10-25.34 97.76-24.70L97.76-24.70L97.76-24.70Q100.42-24.06 101.76-23.26L101.76-23.26L101.76-15.62L93.76-15.62L93.76-17.12L93.76-17.12Q93.76-18.46 93.20-19.06L93.20-19.06L93.20-19.06Q92.64-19.65 91.42-19.65L91.42-19.65L91.42-19.65Q90.21-19.65 89.65-19.06L89.65-19.06L89.65-19.06Q89.09-18.46 89.09-17.12L89.09-17.12L89.09-7.78L89.09-7.78Q89.09-6.43 89.65-5.84L89.65-5.84L89.65-5.84Q90.21-5.25 91.42-5.25L91.42-5.25L91.42-5.25Q92.64-5.25 93.20-5.84L93.20-5.84L93.20-5.84Q93.76-6.43 93.76-7.78L93.76-7.78L93.76-8L92.03-8L92.03-12.77L103.36-12.77Z" fill="url(#editing-outline-gradient)"></path></g></g><style>text {
  font-size: 64px;
  font-family: Arial Black;
  dominant-baseline: central;
  text-anchor: middle;
}</style></svg>