<svg width="122.9199951171875px" height="77.639990234375px" xmlns="http://www.w3.org/2000/svg" viewBox="188.54000244140624 36.1800048828125 122.9199951171875 77.639990234375" style="background: rgba(0, 0, 0, 0) none repeat scroll 0% 0%;" preserveAspectRatio="xMidYMid"><defs><linearGradient id="editing-outline-gradient" class="editing-outline-gradient" x1="-0.41354545764260087" x2="1.4135454576426008" y1="0.09326335692419985" y2="0.9067366430758002"><stop offset="0" stop-color="#1da1f2"></stop><stop offset="1" stop-color="#1da1f2"></stop></linearGradient><filter id="editing-outline" x="-100%" y="-100%" width="300%" height="300%"><feMorphology in="SourceGraphic" operator="dilate" radius="3" result="outline"></feMorphology><feComposite operator="out" in="outline" in2="SourceAlpha"></feComposite></filter></defs><g filter="url(#editing-outline)"><g transform="translate(213.04999685287476, 86.78499984741211)"><path d="M6.38-23.03L6.38-12L6.38-12Q6.38-9.59 6.69-7.92L6.69-7.92L6.69-7.92Q7-6.25 7.59-5.17L7.59-5.17L7.59-5.17Q8.19-4.09 9.02-3.56L9.02-3.56L9.02-3.56Q9.84-3.03 10.88-2.94L10.88-2.94L10.88 0.16L10.88 0.16Q8.97 0.03 7.42-0.77L7.42-0.77L7.42-0.77Q5.88-1.56 4.81-3.05L4.81-3.05L4.81-3.05Q3.75-4.53 3.16-6.69L3.16-6.69L3.16-6.69Q2.56-8.84 2.56-11.63L2.56-11.63L2.56-23.03L6.38-23.03ZM16.69-23.03L20.47-23.03L20.47-11.63L20.47-11.63Q20.47-8.84 19.88-6.69L19.88-6.69L19.88-6.69Q19.28-4.53 18.20-3.05L18.20-3.05L18.20-3.05Q17.13-1.56 15.59-0.77L15.59-0.77L15.59-0.77Q14.06 0.03 12.16 0.16L12.16 0.16L12.16-2.94L12.16-2.94Q13.19-3.06 14.02-3.58L14.02-3.58L14.02-3.58Q14.84-4.09 15.44-5.16L15.44-5.16L15.44-5.16Q16.03-6.22 16.36-7.89L16.36-7.89L16.36-7.89Q16.69-9.56 16.69-12L16.69-12L16.69-23.03ZM28.53-2.13L28.53-2.13L28.53-2.13Q28.53-1.19 27.88-0.53L27.88-0.53L27.88-0.53Q27.22 0.13 26.28 0.13L26.28 0.13L26.28 0.13Q25.34 0.13 24.70-0.53L24.70-0.53L24.70-0.53Q24.06-1.19 24.06-2.13L24.06-2.13L24.06-2.13Q24.06-3.06 24.72-3.70L24.72-3.70L24.72-3.70Q25.38-4.34 26.28-4.34L26.28-4.34L26.28-4.34Q27.22-4.34 27.88-3.70L27.88-3.70L27.88-3.70Q28.53-3.06 28.53-2.13ZM47.97-20.91L45.38-18.59L45.38-18.59Q44.63-19.50 43.66-19.91L43.66-19.91L43.66-19.91Q42.69-20.31 41.66-20.31L41.66-20.31L41.53-20.31L41.53-23.41L41.56-23.41L41.56-23.41Q43.44-23.41 45.06-22.78L45.06-22.78L45.06-22.78Q46.69-22.16 47.97-20.91L47.97-20.91ZM31.97-11.63L31.97-11.63L31.97-11.63Q31.97-14.31 32.59-16.39L32.59-16.39L32.59-16.39Q33.22-18.47 34.31-19.92L34.31-19.92L34.31-19.92Q35.41-21.38 36.94-22.22L36.94-22.22L36.94-22.22Q38.47-23.06 40.25-23.28L40.25-23.28L40.25-20.16L40.25-20.16Q39.31-19.91 38.52-19.31L38.52-19.31L38.52-19.31Q37.72-18.72 37.11-17.67L37.11-17.67L37.11-17.67Q36.50-16.63 36.16-15.14L36.16-15.14L36.16-15.14Q35.81-13.66 35.78-11.63L35.78-11.63L35.78-11.63Q35.81-9.59 36.16-8.06L36.16-8.06L36.16-8.06Q36.50-6.53 37.11-5.42L37.11-5.42L37.11-5.42Q37.72-4.31 38.52-3.66L38.52-3.66L38.52-3.66Q39.31-3 40.25-2.75L40.25-2.75L40.25 0.09L40.25 0.09Q38.47-0.13 36.94-0.98L36.94-0.98L36.94-0.98Q35.41-1.84 34.31-3.31L34.31-3.31L34.31-3.31Q33.22-4.78 32.59-6.86L32.59-6.86L32.59-6.86Q31.97-8.94 31.97-11.63ZM41.53-11.88L49.16-11.88L49.16-2.97L49.16-2.97Q48.44-2.06 47.55-1.48L47.55-1.48L47.55-1.48Q46.66-0.91 45.67-0.53L45.67-0.53L45.67-0.53Q44.69-0.16 43.64 0L43.64 0L43.64 0Q42.59 0.16 41.56 0.16L41.56 0.16L41.53 0.16L41.53-2.59L41.53-2.59Q41.91-2.59 42.45-2.64L42.45-2.64L42.45-2.64Q43-2.69 43.58-2.80L43.58-2.80L43.58-2.80Q44.16-2.91 44.67-3.09L44.67-3.09L44.67-3.09Q45.19-3.28 45.44-3.63L45.44-3.63L45.44-9.31L41.53-9.31L41.53-11.88ZM70.16-20.91L67.56-18.59L67.56-18.59Q66.81-19.50 65.84-19.91L65.84-19.91L65.84-19.91Q64.88-20.31 63.84-20.31L63.84-20.31L63.72-20.31L63.72-23.41L63.75-23.41L63.75-23.41Q65.63-23.41 67.25-22.78L67.25-22.78L67.25-22.78Q68.88-22.16 70.16-20.91L70.16-20.91ZM54.16-11.63L54.16-11.63L54.16-11.63Q54.16-14.31 54.78-16.39L54.78-16.39L54.78-16.39Q55.41-18.47 56.50-19.92L56.50-19.92L56.50-19.92Q57.59-21.38 59.13-22.22L59.13-22.22L59.13-22.22Q60.66-23.06 62.44-23.28L62.44-23.28L62.44-20.16L62.44-20.16Q61.50-19.91 60.70-19.31L60.70-19.31L60.70-19.31Q59.91-18.72 59.30-17.67L59.30-17.67L59.30-17.67Q58.69-16.63 58.34-15.14L58.34-15.14L58.34-15.14Q58-13.66 57.97-11.63L57.97-11.63L57.97-11.63Q58-9.59 58.34-8.06L58.34-8.06L58.34-8.06Q58.69-6.53 59.30-5.42L59.30-5.42L59.30-5.42Q59.91-4.31 60.70-3.66L60.70-3.66L60.70-3.66Q61.50-3 62.44-2.75L62.44-2.75L62.44 0.09L62.44 0.09Q60.66-0.13 59.13-0.98L59.13-0.98L59.13-0.98Q57.59-1.84 56.50-3.31L56.50-3.31L56.50-3.31Q55.41-4.78 54.78-6.86L54.78-6.86L54.78-6.86Q54.16-8.94 54.16-11.63ZM63.72-11.88L71.34-11.88L71.34-2.97L71.34-2.97Q70.63-2.06 69.73-1.48L69.73-1.48L69.73-1.48Q68.84-0.91 67.86-0.53L67.86-0.53L67.86-0.53Q66.88-0.16 65.83 0L65.83 0L65.83 0Q64.78 0.16 63.75 0.16L63.75 0.16L63.72 0.16L63.72-2.59L63.72-2.59Q64.09-2.59 64.64-2.64L64.64-2.64L64.64-2.64Q65.19-2.69 65.77-2.80L65.77-2.80L65.77-2.80Q66.34-2.91 66.86-3.09L66.86-3.09L66.86-3.09Q67.38-3.28 67.63-3.63L67.63-3.63L67.63-9.31L63.72-9.31L63.72-11.88Z" fill="url(#editing-outline-gradient)"></path></g></g><style>text {
  font-size: 64px;
  font-family: Arial Black;
  dominant-baseline: central;
  text-anchor: middle;
}</style></svg>